# xmcd CD database file
#
# Track frame offsets:
#	150
#	16275
#	37875
#	53925
#	71625
#	89175
#	110025
#	127575
#	148725
#	166125
#	187875
#	203250
#	220650
#	237750
#	254550
#	274725
#
# Disc length: 3917 seconds
#
# Revision: 1
# Processed by: cddbd v1.5.1PL0 Copyright (c) Steve Scherf et al.
# Submitted via: freeDBTagger 0.5
#
DISCID=de0f4b10
DTITLE=backstreet boys - Greatest Hits - Chapter One
DYEAR=2001
DGENRE=rock
TTITLE0=I Want It That Way
TTITLE1=Everybody(Backstreet's Back)
TTITLE2=As Long As You Love Me
TTITLE3=Show Me The Meaning Of Being Lonely
TTITLE4=Quit Playing Games(With My Heart)
TTITLE5=All I Have To Give
TTITLE6=Larger Than Life
TTITLE7=Anywhere For You
TTITLE8=Get Down
TTITLE9=I'll Never Break Your Heart
TTITLE10=The Call
TTITLE11=Shape Of My Heart
TTITLE12=The One
TTITLE13=More Than That
TTITLE14=Drowning
TTITLE15=The Perfect Fan(Bonus Track)
EXTD=YEAR: 2001
EXTT0=
EXTT1=
EXTT2=
EXTT3=
EXTT4=
EXTT5=
EXTT6=
EXTT7=
EXTT8=
EXTT9=
EXTT10=
EXTT11=
EXTT12=
EXTT13=
EXTT14=
EXTT15=
PLAYORDER=
